<svg width="32" height="32" viewBox="0 0 45 52" fill="none" xmlns="http://www.w3.org/2000/svg">
  <rect width="45" height="52" rx="10" fill="#198754"/>
  
  <path d="M22.5 4C13.5 4 6 11.5 6 20.5C6 31.5 22.5 48 22.5 48C22.5 48 39 31.5 39 20.5C39 11.5 31.5 4 22.5 4Z" fill="white" />
  
  <path d="M22.5 30.5C26.9 30.5 30.5 26.9 30.5 22.5C30.5 18.1 26.9 14.5 22.5 14.5C18.1 14.5 14.5 18.1 14.5 22.5C14.5 26.9 18.1 30.5 22.5 30.5Z" fill="#198754" />
  <path d="M29.7 15.3C29.7 16 29.1 16.5 28.5 16.5C27.9 16.5 27.4 16 27.4 15.3C27.4 14.6 27.9 14.1 28.5 14.1C29.1 14.1 29.7 14.6 29.7 15.3Z" fill="#198754" />
  <path d="M22.5 21.3L18.5 17.3H15.7V18.5H18L21.2 21.7L18 24.9H15.7V26.1H18.5L22.5 22.1V21.3Z" fill="#198754" />
</svg>
